<svg width="53" height="53" viewBox="0 0 53 53" fill="none" xmlns="http://www.w3.org/2000/svg">
<path fill-rule="evenodd" clip-rule="evenodd" d="M26.2092 52.4175C40.6831 52.4175 52.4175 40.6839 52.4175 26.2083C52.4175 11.7336 40.6831 0 26.2092 0C11.7345 0 0 11.7336 0 26.2083C0 40.6839 11.7345 52.4175 26.2092 52.4175ZM12.6694 19.2587C12.6694 15.6254 15.6251 12.6697 19.2584 12.6697H33.1578C36.792 12.6697 39.7477 15.6254 39.7477 19.2587V33.1573C39.7477 36.7923 36.792 39.748 33.1578 39.748H19.2584C15.6251 39.748 12.6694 36.7923 12.6694 33.1573V19.2587ZM19.2584 43.0528H33.1578C38.6144 43.0528 43.0533 38.6131 43.0533 33.1573V19.2587C43.0533 13.8029 38.6144 9.36401 33.1578 9.36401H19.2584C13.8026 9.36401 9.36372 13.8029 9.36372 19.2587V33.1573C9.36372 38.6131 13.8026 43.0528 19.2584 43.0528ZM26.2093 20.9688C23.3196 20.9688 20.969 23.3195 20.969 26.2083C20.969 29.098 23.3196 31.4478 26.2093 31.4478C29.0981 31.4478 31.4488 29.098 31.4488 26.2083C31.4488 23.3195 29.0981 20.9688 26.2093 20.9688ZM26.2093 34.7527C21.4964 34.7527 17.6633 30.9204 17.6633 26.2083C17.6633 21.497 21.4964 17.6631 26.2093 17.6631C30.9206 17.6631 34.7545 21.497 34.7545 26.2083C34.7545 30.9204 30.9206 34.7527 26.2093 34.7527ZM35.1588 19.3164C36.2945 19.3164 37.2156 18.3945 37.2156 17.2588C37.2156 16.1222 36.2945 15.2011 35.1588 15.2011C34.0222 15.2011 33.1011 16.1222 33.1011 17.2588C33.1011 18.3945 34.0222 19.3164 35.1588 19.3164Z" fill="white"/>
</svg>
