<svg width="54" height="53" viewBox="0 0 54 53" fill="none" xmlns="http://www.w3.org/2000/svg">
<path fill-rule="evenodd" clip-rule="evenodd" d="M27.0433 52.4175C41.5172 52.4175 53.2525 40.6839 53.2525 26.2083C53.2525 11.7336 41.5172 0 27.0433 0C12.5686 0 0.834961 11.7336 0.834961 26.2083C0.834961 40.6839 12.5686 52.4175 27.0433 52.4175ZM42.2774 13.2952C40.4797 14.8073 38.1744 14.9047 38.1744 14.9047C36.9446 13.5329 35.1593 12.6696 33.1709 12.6696C29.4584 12.6696 26.449 15.6781 26.449 19.3898C26.449 19.8735 26.5019 20.3465 26.5992 20.8012C17.4392 21.0909 12.3994 13.9299 12.3994 13.9299C9.792 19.8397 14.2111 22.9027 14.2111 22.9027C12.8162 23.0331 11.5303 22.2729 11.5303 22.2729C11.4436 27.5917 16.3274 29.0171 16.3274 29.0171C15.2024 29.5643 13.6251 29.1343 13.6251 29.1343C15.7628 33.815 19.8385 33.9182 19.8385 33.9182C17.2312 37.1174 10.3136 36.9944 10.3136 36.9944C13.2685 38.6807 22.5276 42.3916 31.554 36.6989C40.8429 30.842 40.0736 19.5392 40.0736 19.5392C42.4342 18.1187 43.2942 15.8762 43.2942 15.8762C41.5213 16.7891 40.2263 16.8931 40.2263 16.8931C41.8251 15.4858 42.2774 13.2952 42.2774 13.2952Z" fill="white"/>
</svg>
