<svg width="53" height="53" viewBox="0 0 53 53" fill="none" xmlns="http://www.w3.org/2000/svg">
<path fill-rule="evenodd" clip-rule="evenodd" d="M26.46 52.4175C40.9363 52.4175 52.6691 40.6839 52.6691 26.2083C52.6691 11.7336 40.9363 0 26.46 0C11.9861 0 0.252441 11.7336 0.252441 26.2083C0.252441 40.6839 11.9861 52.4175 26.46 52.4175ZM41.8804 26.2082C41.8804 22.2745 41.6856 18.6007 40.2594 17.1348C39.0848 15.9297 37.3061 15.8002 33.9947 15.6838C30.6354 15.5666 26.4598 15.5171 26.4598 15.5171C26.4598 15.5171 22.2867 15.5666 18.9274 15.6838C15.6159 15.8002 13.8348 15.9297 12.6619 17.1348C11.2356 18.6007 11.0417 22.2745 11.0417 26.2082C11.0417 30.1428 11.2356 33.8166 12.6619 35.2808C13.8348 36.4875 15.6159 36.6163 18.9274 36.7327C22.2867 36.8507 26.4598 36.8994 26.4598 36.8994C26.4598 36.8994 30.6354 36.8507 33.9947 36.7327C37.3061 36.6163 39.0848 36.4875 40.2594 35.2808C41.6856 33.8166 41.8804 30.1428 41.8804 26.2082ZM31.1652 26.2081L22.9081 21.4415V30.9755L31.1652 26.2081Z" fill="white"/>
</svg>
