<svg width="176" height="58" viewBox="0 0 176 58" fill="none" xmlns="http://www.w3.org/2000/svg">
<path d="M107.447 0.969484C108.044 0.496655 108.769 0.181812 109.527 0.0892772C110.19 0.0159267 110.926 0.0712218 111.473 0.496655C111.881 0.785543 112.067 1.3148 112.032 1.80229C111.953 2.31123 111.815 2.80776 111.678 3.30316C111.187 4.9417 110.62 6.55654 110.037 8.16348C109.561 9.47701 109.041 10.7736 108.608 12.1018C107.632 15.0652 106.795 18.0737 105.98 21.0856C105.496 22.8686 105.161 24.6888 104.922 26.5192C104.902 26.7313 104.887 26.9435 104.852 27.1545C104.79 27.6713 104.773 28.1916 104.706 28.7061C104.698 29.3279 104.618 29.9475 104.632 30.5704C104.563 31.2982 104.608 32.0295 104.597 32.7585C104.597 34.467 104.571 36.1755 104.696 37.8761C104.703 38.0363 104.699 38.1966 104.707 38.3568C104.756 38.6604 104.755 38.9696 104.779 39.2754C104.835 39.6523 104.844 40.036 104.902 40.414C105.018 41.477 105.18 42.5378 105.417 43.5827C105.55 44.1391 105.696 44.7011 105.971 45.2077C106.276 45.8284 106.611 46.466 107.172 46.8948C107.675 47.3281 108.253 47.8077 108.327 48.5153C108.37 48.9734 108.271 49.4542 107.989 49.8254C107.804 50.0478 107.508 50.1143 107.233 50.1324C106.232 50.2204 105.229 50.2238 104.224 50.2046C103.508 50.0985 102.862 49.6663 102.449 49.0784C102.082 48.6056 101.863 48.0413 101.659 47.485C101.227 46.1545 101.037 44.762 100.883 43.3762C100.858 43.2307 100.852 43.084 100.83 42.9418C100.822 42.8492 100.82 42.7601 100.815 42.6709C100.78 42.5265 100.789 42.3775 100.76 42.2354C100.685 41.3416 100.62 40.4456 100.545 39.5564C100.526 39.1095 100.521 38.657 100.474 38.2146C100.455 37.8783 100.492 37.5387 100.44 37.2046C100.414 36.7081 100.464 36.2082 100.4 35.7151C100.396 34.3507 100.399 32.9864 100.399 31.6232C100.451 31.1786 100.431 30.7317 100.434 30.2849C100.418 29.9554 100.491 29.6292 100.469 29.2986C100.444 28.9217 100.523 28.5481 100.504 28.1712C100.501 28.0381 100.492 27.9038 100.534 27.7763C100.544 27.5449 100.532 27.3125 100.545 27.0823C100.61 26.4469 100.596 25.8015 100.673 25.1673C100.682 24.8377 100.697 24.506 100.744 24.1798C100.821 22.9284 101.002 21.6859 101.165 20.4412C101.377 18.7779 101.611 17.1156 101.888 15.4613C102.153 13.8826 102.434 12.3004 102.895 10.7635C103.402 9.23101 103.901 7.69516 104.47 6.18414C104.97 4.8785 105.497 3.57173 106.235 2.37781C106.561 1.85195 106.958 1.35993 107.447 0.969484Z" fill="white"/>
<path d="M33.871 1.78521C34.354 1.72991 34.8415 1.79085 35.3245 1.72878C36.6177 1.73668 37.9109 1.63173 39.2042 1.7175C41.3719 1.74684 43.5409 1.83035 45.703 2.01767C47.2343 2.17227 48.7882 2.30317 50.2519 2.81211C50.9978 3.06941 51.7764 3.33798 52.3632 3.88642C52.5968 4.0918 52.6826 4.4924 52.4377 4.72261C52.1612 4.93928 51.8441 5.09839 51.5643 5.31055C50.3986 6.15803 49.3198 7.12287 48.3199 8.15993C47.7862 8.77382 47.1666 9.3042 46.5166 9.78831C46.1533 10.0422 45.7504 10.3018 45.2877 10.269C44.9108 10.0242 44.9503 9.51861 45.0914 9.1496C45.404 8.29422 45.7425 7.44561 46.177 6.6444C46.3948 6.26862 46.7164 5.95152 46.8518 5.5306C46.6904 5.10291 46.2345 4.92912 45.852 4.75421C44.6197 4.27687 43.3028 4.07261 41.9982 3.89996C38.7189 3.51177 35.399 3.55803 32.1174 3.88867C29.7781 4.13807 27.4387 4.50256 25.1818 5.18077C20.8112 6.63311 16.6641 8.95437 13.4446 12.2811C10.9981 14.784 9.15302 17.8727 8.12385 21.2186C7.56864 23.0388 7.31135 24.9448 7.29104 26.844C7.24365 27.4049 7.25606 27.968 7.29894 28.5265C7.28766 29.2352 7.34859 29.9394 7.37455 30.6458C7.43661 32.1049 7.77628 33.5336 8.12837 34.9464C8.51882 36.4597 9.03001 37.9459 9.69129 39.3632C10.2093 40.4827 10.8954 41.5141 11.6458 42.4902C12.0543 43.0195 12.4323 43.5724 12.8973 44.0543C13.2866 44.4413 13.6737 44.8295 14.0619 45.2177C14.6362 45.7583 15.2637 46.2356 15.9001 46.6983C17.858 48.0852 19.9299 49.3242 22.1349 50.2722C24.6413 51.3352 27.2638 52.0958 29.8977 52.7706C34.2592 53.8821 38.6298 54.9576 43.0263 55.9168C44.0633 56.1537 45.1151 56.3219 46.1634 56.5024C46.4072 56.5634 46.7051 56.5701 46.8676 56.7913C46.6769 56.9222 46.4512 56.9832 46.2266 57.0215H44.139C41.6022 56.8049 39.0676 56.5419 36.5455 56.1932C34.6181 55.9326 32.6884 55.6809 30.7609 55.4146C27.564 54.9655 24.437 54.136 21.3326 53.266C20.361 53.0019 19.4006 52.6984 18.4414 52.3959C17.1245 51.94 15.7997 51.4886 14.5663 50.8341C12.0385 49.5409 9.57732 48.0739 7.40615 46.2311C5.64009 44.7212 4.08393 42.9506 2.90919 40.9408C1.38463 38.3318 0.321614 35.4181 0.0643229 32.3961C0.0417536 32.176 0.0372395 31.9548 0 31.737V29.4857C0.0519096 29.1382 0.0519098 28.7861 0.0936632 28.4385C0.251649 26.8733 0.58229 25.3319 0.926474 23.7983C1.12396 22.9045 1.28758 21.9972 1.63515 21.1464C2.08993 20.0235 2.44201 18.8567 2.99496 17.7767C4.5466 14.7479 6.60042 11.9369 9.2196 9.7443C11.2994 7.9805 13.6861 6.62183 16.1439 5.46289C17.0941 5.01037 18.0691 4.60751 19.0689 4.27687C20.1003 3.95525 21.1407 3.66637 22.1801 3.37748C23.4033 3.0852 24.6469 2.88095 25.8735 2.60335C27.5742 2.20951 29.3176 2.0583 31.0543 1.92401C31.9921 1.8484 32.931 1.81003 33.871 1.78521Z" fill="white"/>
<path d="M114.967 20.0004C115.283 19.9824 115.603 19.9948 115.92 19.9959C116.357 20.0456 116.709 20.3491 116.926 20.717C117.251 21.2463 117.463 21.8387 117.81 22.3544C118.233 22.9931 118.615 23.7142 118.597 24.5019C118.641 25.2783 118.32 26.0569 117.765 26.5975C117.205 27.2046 116.425 27.5713 115.626 27.7406C113.839 28.0611 111.935 26.6257 111.794 24.8043C111.757 24.2412 111.976 23.7052 112.161 23.185C112.492 22.3341 112.934 21.5148 113.544 20.831C113.751 20.5974 113.996 20.3875 114.299 20.2927C114.53 20.216 114.742 20.0918 114.967 20.0004Z" fill="white"/>
<path d="M34.8169 31.6711C36.6619 29.8859 39.1175 28.7111 41.6859 28.5103C42.9701 28.4245 44.2848 28.534 45.499 28.9854C46.518 29.3645 47.4783 29.9355 48.2344 30.7243C49.2658 31.705 49.9666 32.9846 50.4372 34.3162C50.8389 35.4707 51.024 36.6838 51.2993 37.8709C51.5013 38.8978 51.7372 39.9225 51.8139 40.9697C51.9031 41.473 51.8681 41.9853 51.876 42.4931C51.885 42.8125 51.8557 43.1318 51.815 43.4501C51.5747 45.6258 50.6064 47.7428 49.0074 49.256C48.5199 49.7672 47.9512 50.1972 47.3632 50.5899C46.2788 51.276 45.1063 51.8481 43.8604 52.1754C43.092 52.3876 42.3065 52.5399 41.5132 52.6234C41.3722 52.6539 41.2266 52.6471 41.0844 52.6584C40.8632 52.7069 40.6353 52.6753 40.4107 52.6821C39.965 52.6731 39.5192 52.708 39.0769 52.6494C37.6223 52.5106 36.2241 51.9858 34.9805 51.232C34.0484 50.6418 33.1682 49.9489 32.4516 49.1048C31.2554 47.7744 30.514 46.0636 30.2827 44.2953C30.2398 44.0843 30.2195 43.8721 30.2127 43.66C30.1473 43.3745 30.2184 43.0777 30.1631 42.7922C30.224 42.4446 30.1428 42.0891 30.2127 41.7438C30.3109 40.252 30.6946 38.7918 31.2227 37.397C32.0442 35.2879 33.2382 33.304 34.8169 31.6711ZM44.8659 36.932C43.8525 37.0663 43.2556 38.3516 43.7273 39.2352C43.9203 39.5264 44.3186 39.6234 44.6459 39.5399C45.2462 39.4124 45.7901 38.9441 45.9154 38.328C46.0113 37.9793 45.8917 37.6159 45.7247 37.3089C45.6017 36.9693 45.174 36.9174 44.8659 36.932ZM37.8378 38.7545C37.8434 39.0919 37.7701 39.5072 38.0793 39.7419C38.5025 39.9981 39.0272 39.8604 39.4718 39.7318C39.8363 39.6313 40.1828 39.3661 40.2448 38.9723C40.2008 38.5582 39.9774 38.1948 39.9052 37.7863C39.8318 37.5504 39.5993 37.3744 39.3579 37.3405C38.5668 37.2345 37.8175 37.9725 37.8378 38.7545ZM39.0949 42.4311C38.7496 42.4401 38.4212 42.6274 38.2339 42.9186C37.8683 43.4523 37.7994 44.1226 37.7656 44.7523C37.7238 45.1337 38.0229 45.4734 38.3772 45.5705C39.2066 45.8368 40.1613 45.1744 40.2685 44.3269C40.2448 43.7559 40.0801 43.1849 39.7822 42.694C39.6106 42.5067 39.3398 42.4446 39.0949 42.4311ZM43.4598 43.6239C42.969 44.0752 42.794 44.7828 42.8527 45.4305C42.9802 45.7736 43.4113 45.8368 43.7318 45.8436C44.0534 45.8232 44.4574 45.9259 44.6921 45.6404C45.0318 45.2432 45.1638 44.7219 45.2755 44.2231C45.2812 43.8834 45.3331 43.5133 45.1176 43.2199C45.0815 43.1973 45.0081 43.1533 44.972 43.1318C44.4269 43.0055 43.8537 43.2469 43.4598 43.6239Z" fill="white"/>
<path d="M114.296 30.5413C114.835 30.4645 115.422 30.5604 115.849 30.9204C116.509 31.4643 116.778 32.3288 116.928 33.1413C116.976 33.4008 116.996 33.6649 117.034 33.9267C117.17 35.01 117.166 36.1385 116.788 37.1767C116.676 37.5761 116.456 37.935 116.383 38.3435C116.308 39.0194 116.552 39.674 116.833 40.2754C117.353 41.2741 118.067 42.1724 118.925 42.9014C119.203 43.1519 119.501 43.3923 119.848 43.5367C120.489 43.8053 121.189 43.9678 121.765 44.3707C122.085 44.6178 122.401 44.9304 122.466 45.3468C122.623 46.1446 122.569 46.9932 122.274 47.7561C122.066 48.3124 121.676 48.801 121.174 49.1193C120.78 49.3765 120.324 49.5131 119.87 49.6056C119.205 49.723 118.522 49.7478 117.86 49.6067C115.871 49.1915 114.067 47.9265 113.05 46.1604C112.31 44.9044 111.965 43.4476 111.895 41.9997C111.871 41.589 111.827 41.1782 111.819 40.7686C111.759 40.5812 111.819 40.3793 111.759 40.1931C111.741 39.8161 111.736 39.4359 111.688 39.0646C111.679 38.1957 111.593 37.32 111.677 36.4544C111.678 36.1238 111.696 35.7932 111.743 35.467C111.892 33.9797 112.313 32.4811 113.184 31.2488C113.429 30.8651 113.858 30.6349 114.296 30.5413Z" fill="white"/>
<path d="M157.382 30.7406C157.883 30.6751 158.396 30.7304 158.904 30.7124C159.291 30.6898 159.675 30.753 160.061 30.7541C160.225 30.8015 160.399 30.7688 160.568 30.8083C161.727 30.9403 162.851 31.3026 163.923 31.7596C164.656 32.0812 165.287 32.5868 165.875 33.1217C166.314 33.5527 166.757 33.9827 167.118 34.4837C167.428 34.8674 167.613 35.3369 167.955 35.6957C168.266 36.0636 168.769 36.2069 169.239 36.1392C170.248 35.9778 171.191 35.5862 172.157 35.2703C172.707 35.1055 173.276 34.9554 173.856 34.978C174.286 34.9724 174.723 35.0954 175.067 35.3572C175.492 35.6743 175.777 36.1516 175.945 36.6493C176.056 36.9483 175.988 37.2812 175.83 37.5498C175.574 37.9967 175.145 38.3036 174.734 38.5993C174.025 39.1263 173.16 39.3813 172.31 39.5709C171.366 39.7864 170.401 39.8812 169.441 39.9805C169.11 40.0031 168.777 40.0042 168.453 40.0527C167.704 40.0708 166.958 40.1385 166.208 40.134C165.787 40.2197 165.347 40.1058 164.927 40.1938C164.187 40.1802 163.451 40.2536 162.712 40.2333C161.935 40.2197 161.158 40.2671 160.384 40.1983C159.843 40.1994 159.301 40.1983 158.761 40.2006C157.625 40.1137 156.48 40.213 155.345 40.1238C155.183 40.0764 155.012 40.0979 154.849 40.0855C154.521 40.0177 154.177 40.0674 153.858 40.1475C153.602 40.2502 153.626 40.5831 153.58 40.8054C153.6 41.6382 154.004 42.3977 154.436 43.0894C154.826 43.6706 155.258 44.2236 155.748 44.7235C155.974 44.9819 156.217 45.3058 156.597 45.3024C157.206 45.2595 157.77 44.9999 158.343 44.8115C158.877 44.64 159.436 44.412 160.005 44.491C160.692 44.5542 161.391 44.7946 161.895 45.2866C162.57 45.9377 162.837 46.9014 162.871 47.8155C162.882 48.3379 162.706 48.8932 162.289 49.2272C161.617 49.6695 160.774 49.6695 160.001 49.6436C159.437 49.5872 158.887 49.4529 158.342 49.3028C157.043 48.9575 155.73 48.611 154.529 47.9915C153.677 47.5774 152.909 46.9996 152.246 46.3236C150.451 44.4628 149.389 41.9091 149.38 39.3192C149.382 39.1624 149.364 39.0033 149.412 38.852C149.415 38.7144 149.415 38.5756 149.424 38.439C149.564 37.1458 149.887 35.8469 150.578 34.732C150.97 34.0876 151.453 33.4997 152 32.9795C153.385 31.5226 155.413 30.8501 157.382 30.7406ZM157.743 33.3632C157.263 33.4489 156.787 33.5742 156.356 33.7999C155.422 34.2648 154.579 34.9938 154.15 35.9609C154.033 36.2678 153.898 36.5906 153.936 36.9246C154.047 37.1751 154.369 37.1469 154.598 37.1932C155.398 37.2101 156.203 37.1954 157.004 37.2C157.658 37.1345 158.317 37.1763 158.975 37.1661C159.795 37.095 160.62 37.1447 161.444 37.13C161.965 37.1142 162.513 37.1864 163.011 36.9912C162.94 36.5454 162.633 36.1956 162.362 35.8537C162.119 35.5388 161.818 35.2782 161.544 34.9893C161.193 34.5639 160.781 34.179 160.305 33.8992C159.809 33.6464 159.291 33.3688 158.725 33.3553L158.664 33.3214C158.354 33.3045 158.049 33.344 157.743 33.3632Z" fill="white"/>
<path d="M83.7541 32.3013C85.0203 31.6062 86.4343 30.9494 87.9159 31.1243C89.2396 31.1988 90.578 31.7686 91.4119 32.8272C92.1432 33.7186 92.5336 34.8381 92.7368 35.962C92.7988 36.3593 92.8586 36.7576 92.8586 37.1616C92.9151 37.3478 92.8643 37.5475 92.9128 37.7371C93.0888 39.2606 93.371 40.8145 94.1112 42.1765C94.425 42.6527 94.7059 43.1504 94.9328 43.6751C95.2871 44.4075 95.6155 45.1523 95.9913 45.8745C96.314 46.5403 96.6627 47.1971 97.1051 47.7895C97.2935 48.1044 97.5486 48.4937 97.3725 48.8695C97.254 49.1539 96.9256 49.2216 96.6582 49.2927C95.7915 49.3671 94.9102 49.3637 94.0526 49.2024C93.2638 49.0387 92.4501 48.839 91.79 48.3515C91.2224 47.9464 90.8635 47.3269 90.5554 46.7152C90.1819 45.9253 89.8513 45.1151 89.5172 44.3093C89.2915 43.7372 89.0704 43.1515 89.0343 42.5331C88.9981 42.383 89.0072 42.2273 89.0094 42.075C88.9812 42.0422 88.9259 41.9757 88.8966 41.9429C88.716 42.0197 88.5716 42.1551 88.5016 42.3402C88.0164 43.5905 87.3901 44.7878 86.6216 45.8892C85.8328 46.9894 84.8837 48.031 83.6481 48.6314C83.0443 48.9519 82.3808 49.129 81.715 49.2543C81.0842 49.3525 80.4477 49.4247 79.8101 49.4473C77.7733 49.7 75.5919 49.2904 73.9263 48.0446C73.6577 47.8234 73.3497 47.6225 73.1939 47.2986C73.0833 47.1147 73.0551 46.8992 73.0043 46.6949C72.94 45.8802 73.1894 45.0835 73.4817 44.3342C73.9963 43.0579 74.723 41.8831 75.4396 40.7118C77.5679 37.3625 80.2909 34.3009 83.7541 32.3013ZM81.3607 39.6995C80.4037 40.5391 79.5675 41.531 78.9762 42.664C78.6456 43.2971 78.3905 43.9776 78.3319 44.6941C78.3003 45.2674 78.4977 45.8937 78.9773 46.2424C79.3035 46.4997 79.7289 46.5584 80.1284 46.6137C80.8991 46.6532 81.6416 46.2864 82.1754 45.747C82.7306 45.22 83.1572 44.5768 83.5228 43.911C84.2676 42.5771 84.772 41.1304 85.3329 39.7142C85.615 38.9322 85.9197 38.1479 86.0675 37.3264C86.0968 37.1492 86.1059 36.9483 85.9738 36.8084C84.3263 37.578 82.7374 38.5067 81.3607 39.6995Z" fill="white"/>
<path d="M136.01 31.3728C136.537 31.3107 137.101 31.3254 137.584 31.5714C138.997 32.2338 140.114 33.3803 141.029 34.6217C141.532 35.3315 142.013 36.0593 142.439 36.8188C143.059 38.244 143.52 39.7302 144.051 41.1893C144.525 42.4239 144.879 43.7002 145.262 44.9652C145.547 45.9176 145.832 46.8825 145.9 47.8812C145.956 48.3484 145.928 48.8246 145.882 49.2918C145.795 49.786 145.656 50.2792 145.385 50.7069C145.07 51.2045 144.606 51.6503 144.02 51.7902C143.252 51.9549 142.472 51.648 141.835 51.2406C140.691 50.5545 139.858 49.4509 139.324 48.2434C138.735 46.9671 138.34 45.6141 137.863 44.2915C137.339 42.9227 136.855 41.5369 136.434 40.132C136.277 39.6117 135.942 39.1073 135.424 38.8974C134.897 38.683 134.316 38.8512 133.824 39.078C132.639 39.7189 131.987 40.967 131.378 42.1113C131.031 42.8279 130.68 43.5445 130.348 44.2678C130.01 44.9144 129.68 45.5791 129.178 46.1208C128.82 46.5101 128.414 46.9299 127.876 47.0382C127.556 47.0416 127.423 46.6951 127.283 46.4649C126.95 45.8465 127.019 45.1311 127.029 44.4585C127.073 43.9801 127.131 43.5027 127.205 43.0276C127.314 42.337 127.49 41.6588 127.647 40.9795C127.657 40.9038 127.669 40.8282 127.684 40.756C127.79 40.1049 127.85 39.4492 127.913 38.7936C128.021 37.8908 128.135 36.9587 128.574 36.1473C129.013 35.3382 129.835 34.7988 130.718 34.5957C131.13 34.5743 131.559 34.642 131.956 34.4987C132.489 34.2402 132.727 33.6658 133.023 33.1908C133.389 32.552 134.027 32.1356 134.655 31.7858C135.07 31.55 135.531 31.3931 136.01 31.3728Z" fill="white"/>
<path d="M63.0407 32.6044C63.7945 32.1609 64.6995 32.2128 65.5402 32.241C65.7569 32.2839 65.9826 32.2365 66.197 32.2952C66.689 32.2895 67.1765 32.3482 67.6663 32.3787C68.7282 32.4994 69.7946 32.671 70.8046 33.0332C71.7085 33.3492 72.6248 33.8175 73.1552 34.6503C73.7431 35.473 73.7566 36.7064 73.0434 37.4591C72.5853 37.9206 71.8868 38.1271 71.2503 38.0019C70.4197 37.8687 69.6975 37.4128 68.9223 37.1149C68.2982 36.8655 67.6302 36.6161 66.9474 36.7312C66.1993 36.852 65.6079 37.3914 65.1622 37.9725C64.5833 38.7591 64.0495 39.5874 63.6659 40.4879C63.3488 41.2485 63.2664 42.0745 63.1682 42.8836C63.1479 43.2571 63.0858 43.6273 63.0824 44.0019C63.0305 44.4217 63.017 44.8472 63.0136 45.2715C62.9425 45.5039 63.0226 45.7533 62.9549 45.9869C62.894 46.8524 62.8037 47.7349 62.4787 48.5452C62.2677 49.0857 61.7113 49.3599 61.1956 49.5348C60.3233 49.7899 59.3201 49.7616 58.5347 49.2696C58.2086 49.0665 57.8531 48.8442 57.7053 48.4707C57.5834 48.1186 57.5586 47.7372 57.615 47.3693C57.6793 46.6798 57.887 46.0163 58.0732 45.3516C58.3 44.3879 58.3869 43.3959 58.4072 42.4097C58.4501 42.1005 58.4365 41.7867 58.4286 41.4764C58.3598 41.218 58.4377 40.9472 58.3733 40.6899C58.3361 40.0726 58.2469 39.4486 57.9987 38.8798C57.6218 37.9635 57.1704 37.0675 56.5554 36.2843C55.9956 35.5508 55.2147 35.0351 54.4903 34.4788C54.2804 34.3118 54.0344 34.1504 53.9441 33.8841C53.8685 33.6753 53.9813 33.4722 54.0468 33.2781C54.5523 32.8504 55.2689 32.724 55.8963 32.926C56.9774 33.26 57.8407 34.0274 58.7412 34.6796C59.2389 35.0295 59.7512 35.412 60.3673 35.5079C60.8774 35.5553 61.2351 35.1017 61.4563 34.7011C61.8772 33.9371 62.2158 33.0242 63.0407 32.6044Z" fill="white"/>
</svg>
