<svg width="38" height="41" viewBox="0 0 38 41" fill="none" xmlns="http://www.w3.org/2000/svg">
<path d="M15.1995 0.703609C15.4461 1.0044 15.5972 1.37206 15.6333 1.75937C15.6694 2.14667 15.5889 2.53593 15.4021 2.87713C13.9367 5.56579 13.1718 8.5801 13.1779 11.6422C13.1779 21.8283 21.4819 30.0766 31.7162 30.0766C33.0538 30.0749 34.3483 29.9398 35.5997 29.6713C35.9825 29.5894 36.381 29.6215 36.7457 29.7638C37.1104 29.9061 37.4254 30.1523 37.6516 30.4718C37.8909 30.8043 38.0131 31.2068 37.9989 31.6163C37.9847 32.0257 37.8349 32.4188 37.5731 32.7339C35.5861 35.1744 33.0796 37.1408 30.2363 38.4897C27.3929 39.8386 24.2845 40.5361 21.1374 40.5313C9.45913 40.5313 0 31.1228 0 19.5307C0 10.8062 5.35528 3.32298 12.9803 0.151362C13.36 -0.0100055 13.7819 -0.0433969 14.1823 0.056234C14.5826 0.155865 14.9397 0.383104 15.1995 0.703609ZM12.3065 3.32045C9.37471 4.89338 6.92378 7.23114 5.21411 10.0853C3.50444 12.9396 2.59989 16.2036 2.59658 19.5307C2.59658 29.7143 10.9031 37.9626 21.1374 37.9626C23.5881 37.9662 26.0152 37.4841 28.2784 36.544C30.5416 35.604 32.5961 34.2246 34.3229 32.4857C33.4684 32.5921 32.5995 32.6453 31.7162 32.6453C20.038 32.6453 10.5814 23.2368 10.5814 11.6447C10.5814 8.68839 11.1944 5.87396 12.3065 3.32045Z" fill="white"/>
</svg>
