<svg width="40" height="41" viewBox="0 0 40 41" fill="none" xmlns="http://www.w3.org/2000/svg">
<path d="M27.5 15.2656C27.5 17.2547 26.7098 19.1624 25.3033 20.5689C23.8968 21.9754 21.9891 22.7656 20 22.7656C18.0109 22.7656 16.1032 21.9754 14.6967 20.5689C13.2902 19.1624 12.5 17.2547 12.5 15.2656C12.5 13.2765 13.2902 11.3688 14.6967 9.96232C16.1032 8.5558 18.0109 7.76562 20 7.76562C21.9891 7.76562 23.8968 8.5558 25.3033 9.96232C26.7098 11.3688 27.5 13.2765 27.5 15.2656Z" fill="white"/>
<path fill-rule="evenodd" clip-rule="evenodd" d="M0 20.2656C0 14.9613 2.10714 9.87422 5.85786 6.12349C9.60859 2.37276 14.6957 0.265625 20 0.265625C25.3043 0.265625 30.3914 2.37276 34.1421 6.12349C37.8929 9.87422 40 14.9613 40 20.2656C40 25.57 37.8929 30.657 34.1421 34.4078C30.3914 38.1585 25.3043 40.2656 20 40.2656C14.6957 40.2656 9.60859 38.1585 5.85786 34.4078C2.10714 30.657 0 25.57 0 20.2656ZM20 2.76562C16.7044 2.7658 13.4759 3.69653 10.686 5.45069C7.8961 7.20486 5.65821 9.71115 4.22991 12.6811C2.80161 15.6511 2.24097 18.964 2.6125 22.2385C2.98403 25.5131 4.27263 28.6161 6.33 31.1906C8.105 28.3306 12.0125 25.2656 20 25.2656C27.9875 25.2656 31.8925 28.3281 33.67 31.1906C35.7274 28.6161 37.016 25.5131 37.3875 22.2385C37.759 18.964 37.1984 15.6511 35.7701 12.6811C34.3418 9.71115 32.1039 7.20486 29.314 5.45069C26.5241 3.69653 23.2956 2.7658 20 2.76562Z" fill="white"/>
</svg>
