<svg width="40" height="41" viewBox="0 0 40 41" fill="none" xmlns="http://www.w3.org/2000/svg">
<path d="M0 1.59896C0 1.24534 0.140479 0.906198 0.390532 0.656149C0.640586 0.406101 0.979731 0.265625 1.33336 0.265625H5.33344C5.63086 0.265707 5.91972 0.365227 6.15407 0.548358C6.38843 0.731488 6.55482 0.987715 6.6268 1.27629L7.70682 5.59896H38.6674C38.8646 5.59908 39.0593 5.64293 39.2376 5.72736C39.4158 5.81179 39.573 5.9347 39.698 6.08722C39.823 6.23975 39.9126 6.41809 39.9603 6.60941C40.0081 6.80073 40.0128 7.00026 39.9741 7.19362L37.3074 20.527C37.2491 20.8177 37.0955 21.0807 36.8709 21.2744C36.6463 21.4681 36.3636 21.5813 36.0674 21.5963L11.0082 22.855L11.7736 26.9323H34.6674C35.021 26.9323 35.3601 27.0728 35.6102 27.3228C35.8602 27.5729 36.0007 27.912 36.0007 28.2656C36.0007 28.6192 35.8602 28.9584 35.6102 29.2084C35.3601 29.4585 35.021 29.599 34.6674 29.599H10.6669C10.356 29.5987 10.055 29.4898 9.81596 29.2911C9.57687 29.0925 9.41472 28.8165 9.35752 28.511L5.36011 7.21762L4.29342 2.93229H1.33336C0.979731 2.93229 0.640586 2.79182 0.390532 2.54177C0.140479 2.29172 0 1.95258 0 1.59896ZM8.27217 8.26562L10.5122 20.2096L34.8967 18.9856L37.0407 8.26562H8.27217ZM13.3336 29.599C11.9191 29.599 10.5625 30.1609 9.56229 31.1611C8.56208 32.1612 8.00016 33.5178 8.00016 34.9323C8.00016 36.3468 8.56208 37.7033 9.56229 38.7035C10.5625 39.7037 11.9191 40.2656 13.3336 40.2656C14.7481 40.2656 16.1047 39.7037 17.1049 38.7035C18.1051 37.7033 18.667 36.3468 18.667 34.9323C18.667 33.5178 18.1051 32.1612 17.1049 31.1611C16.1047 30.1609 14.7481 29.599 13.3336 29.599ZM32.0006 29.599C30.5861 29.599 29.2295 30.1609 28.2293 31.1611C27.2291 32.1612 26.6672 33.5178 26.6672 34.9323C26.6672 36.3468 27.2291 37.7033 28.2293 38.7035C29.2295 39.7037 30.5861 40.2656 32.0006 40.2656C33.4152 40.2656 34.7717 39.7037 35.772 38.7035C36.7722 37.7033 37.3341 36.3468 37.3341 34.9323C37.3341 33.5178 36.7722 32.1612 35.772 31.1611C34.7717 30.1609 33.4152 29.599 32.0006 29.599ZM13.3336 32.2656C14.0409 32.2656 14.7191 32.5466 15.2193 33.0467C15.7194 33.5468 16.0003 34.225 16.0003 34.9323C16.0003 35.6395 15.7194 36.3178 15.2193 36.8179C14.7191 37.318 14.0409 37.599 13.3336 37.599C12.6263 37.599 11.9481 37.318 11.4479 36.8179C10.9478 36.3178 10.6669 35.6395 10.6669 34.9323C10.6669 34.225 10.9478 33.5468 11.4479 33.0467C11.9481 32.5466 12.6263 32.2656 13.3336 32.2656ZM32.0006 32.2656C32.7079 32.2656 33.3862 32.5466 33.8863 33.0467C34.3864 33.5468 34.6674 34.225 34.6674 34.9323C34.6674 35.6395 34.3864 36.3178 33.8863 36.8179C33.3862 37.318 32.7079 37.599 32.0006 37.599C31.2934 37.599 30.6151 37.318 30.115 36.8179C29.6149 36.3178 29.3339 35.6395 29.3339 34.9323C29.3339 34.225 29.6149 33.5468 30.115 33.0467C30.6151 32.5466 31.2934 32.2656 32.0006 32.2656Z" fill="white"/>
</svg>
